<?xml version="1.0" encoding="utf-8"?><svg viewBox="0 0 48 48" xmlns="http://www.w3.org/2000/svg" xmlns:xlink="http://www.w3.org/1999/xlink"><style>:root>svg{display:none}:root>svg:target{display:block}</style><svg fill="none" viewBox="0 0 14 30" id="angle" xmlns="http://www.w3.org/2000/svg"><path d="M.637.059a1.726 1.726 0 00-.536.473L0 .68v.595l.088.146c.049.081 2.68 3.169 5.847 6.864l5.758 6.718-5.758 6.718C2.768 25.416.137 28.505.088 28.586L0 28.732v.587l.095.144c.105.163.246.297.451.43l.138.09h.33c.322 0 .333-.001.434-.066a1.65 1.65 0 00.248-.216c.079-.082 2.843-3.299 6.142-7.149 4.561-5.323 6.018-7.038 6.08-7.155.078-.148.082-.167.082-.394s-.004-.245-.082-.393c-.062-.118-1.519-1.833-6.08-7.155C4.539 3.605 1.77.383 1.686.296a1.639 1.639 0 00-.273-.228C1.302.004 1.28 0 1.025 0 .783 0 .744.006.637.059" fill-rule="evenodd" fill="#000"/></svg><svg fill="none" viewBox="0 0 41 16" id="arrow" xmlns="http://www.w3.org/2000/svg"><path d="M40.707 8.707a1 1 0 000-1.414L34.343.929a1 1 0 10-1.414 1.414L38.586 8l-5.657 5.657a1 1 0 001.414 1.414l6.364-6.364zM0 9h40V7H0v2z" fill="#A960AB"/></svg><svg viewBox="0 0 32 32" id="dribble" xmlns="http://www.w3.org/2000/svg"><path fill-rule="evenodd" clip-rule="evenodd" d="M16 0C7.167 0 0 7.167 0 16s7.167 16 16 16c8.816 0 16-7.167 16-16S24.816 0 16 0zm10.568 7.375a13.604 13.604 0 013.09 8.504c-.452-.087-4.964-1.007-9.51-.434-.105-.226-.191-.469-.296-.712-.277-.66-.59-1.336-.902-1.978 5.033-2.048 7.323-4.998 7.618-5.38zM16 2.36c3.47 0 6.646 1.302 9.059 3.436-.243.347-2.309 3.106-7.168 4.929-2.238-4.113-4.72-7.48-5.101-8 1.023-.243 2.1-.365 3.21-.365zm-5.813 1.284c.364.486 2.793 3.87 5.067 7.896-6.386 1.7-12.026 1.666-12.634 1.666.885-4.234 3.749-7.757 7.567-9.562zM2.325 16.017v-.416c.59.017 7.22.104 14.04-1.944.399.764.763 1.545 1.11 2.326-.174.052-.364.104-.538.156-7.045 2.273-10.794 8.486-11.106 9.006a13.634 13.634 0 01-3.506-9.128zM16 29.675a13.57 13.57 0 01-8.382-2.881c.243-.503 3.02-5.848 10.725-8.538.034-.017.052-.017.087-.035 1.926 4.98 2.707 9.163 2.915 10.36A13.441 13.441 0 0116 29.675zm7.618-2.343c-.139-.833-.867-4.824-2.655-9.736 4.287-.676 8.035.434 8.503.59-.59 3.801-2.776 7.08-5.848 9.146z"/></svg><svg fill="none" viewBox="0 0 32 32" id="facebook" xmlns="http://www.w3.org/2000/svg"><path d="M32 16c0-8.837-7.163-16-16-16S0 7.163 0 16c0 7.986 5.85 14.605 13.5 15.806V20.625H9.437V16H13.5v-3.525c0-4.01 2.389-6.225 6.043-6.225 1.75 0 3.582.313 3.582.313V10.5h-2.017c-1.988 0-2.608 1.233-2.608 2.5v3h4.438l-.71 4.625H18.5v11.18C26.15 30.606 32 23.986 32 16z"/></svg><svg fill="none" viewBox="0 0 32 32" id="google" xmlns="http://www.w3.org/2000/svg"><g clip-path="url(#eclip0_92_4373)"><path fill-rule="evenodd" clip-rule="evenodd" d="M22.458 8.73a8.695 8.695 0 00-6.138-2.398c-4.174 0-7.72 2.816-8.983 6.608a9.584 9.584 0 000 6.126h.006c1.27 3.786 4.809 6.602 8.983 6.602 2.155 0 4.005-.55 5.438-1.524v-.004a7.406 7.406 0 003.198-4.862H16.32v-6.161h15.092a18.82 18.82 0 01.276 3.25c0 4.867-1.74 8.981-4.765 11.768l.003.002C24.275 30.584 20.636 32 16.32 32c-6.05 0-11.582-3.41-14.298-8.813a16.014 16.014 0 010-14.368A15.997 15.997 0 0116.32 0a15.378 15.378 0 0110.706 4.163L22.458 8.73z" fill="#fff"/></g><defs><clipPath id="eclip0_92_4373"><path fill="#fff" d="M0 0h32v32H0z"/></clipPath></defs></svg><svg fill="none" viewBox="0 0 32 32" id="instagram" xmlns="http://www.w3.org/2000/svg"><path d="M16 2.881c4.275 0 4.781.019 6.462.094 1.563.069 2.407.331 2.97.55a4.949 4.949 0 011.837 1.194 4.921 4.921 0 011.194 1.837c.218.563.48 1.413.55 2.969.074 1.688.093 2.194.093 6.463 0 4.274-.019 4.78-.094 6.462-.068 1.563-.33 2.406-.55 2.969a4.95 4.95 0 01-1.193 1.837 4.922 4.922 0 01-1.838 1.194c-.562.219-1.412.481-2.969.55-1.687.075-2.193.094-6.462.094-4.275 0-4.781-.019-6.463-.094-1.562-.069-2.406-.331-2.968-.55a4.949 4.949 0 01-1.838-1.194 4.922 4.922 0 01-1.193-1.837c-.22-.563-.482-1.413-.55-2.969-.075-1.688-.094-2.194-.094-6.462 0-4.275.018-4.782.093-6.463.07-1.563.332-2.406.55-2.969A4.948 4.948 0 014.732 4.72 4.921 4.921 0 016.57 3.525c.562-.219 1.412-.481 2.968-.55C11.22 2.9 11.726 2.881 16 2.881zM16 0c-4.344 0-4.887.019-6.594.094-1.7.075-2.869.35-3.881.744-1.056.412-1.95.956-2.838 1.85-.893.887-1.437 1.78-1.85 2.83C.444 6.539.17 7.7.094 9.4.019 11.113 0 11.656 0 16c0 4.344.019 4.887.094 6.594.075 1.7.35 2.868.744 3.881.412 1.056.956 1.95 1.85 2.837a7.82 7.82 0 002.83 1.844c1.02.394 2.182.669 3.882.744 1.706.075 2.25.094 6.594.094 4.343 0 4.887-.019 6.593-.094 1.7-.075 2.87-.35 3.882-.744a7.82 7.82 0 002.831-1.843 7.822 7.822 0 001.844-2.832c.394-1.019.669-2.181.744-3.881.074-1.706.093-2.25.093-6.594s-.019-4.887-.094-6.594c-.075-1.7-.35-2.868-.743-3.88a7.494 7.494 0 00-1.831-2.845A7.82 7.82 0 0026.48.845C25.462.45 24.3.175 22.6.1 20.887.019 20.344 0 16 0z" fill="#fff"/><path d="M16 7.781A8.22 8.22 0 007.781 16 8.22 8.22 0 0016 24.219 8.22 8.22 0 0024.219 16 8.22 8.22 0 0016 7.781zm0 13.55a5.332 5.332 0 11.001-10.664A5.332 5.332 0 0116 21.331zM26.462 7.456a1.92 1.92 0 11-3.838 0 1.92 1.92 0 013.838 0z" fill="#fff"/></svg><svg fill="none" viewBox="0 0 32 32" id="linked-in" xmlns="http://www.w3.org/2000/svg"><path d="M29.631 0H2.363C1.056 0 0 1.031 0 2.306v27.382C0 30.962 1.056 32 2.362 32h27.27C30.936 32 32 30.962 32 29.694V2.306C32 1.031 30.937 0 29.631 0zM9.494 27.269h-4.75V11.994h4.75v15.275zM7.119 9.912a2.751 2.751 0 01-2.756-2.75 2.751 2.751 0 012.756-2.75 2.75 2.75 0 010 5.5zm20.15 17.357h-4.744v-7.425c0-1.769-.031-4.05-2.469-4.05-2.469 0-2.844 1.931-2.844 3.925v7.55h-4.737V11.994h4.55v2.087h.063c.63-1.2 2.18-2.468 4.487-2.468 4.806 0 5.694 3.162 5.694 7.274v8.382z" fill="#fff"/></svg><svg fill="none" viewBox="0 0 48 48" id="pause" xmlns="http://www.w3.org/2000/svg"><circle cx="24" cy="24" r="22" stroke="#989AA9" stroke-width="2"/><path d="M18 13a1 1 0 112 0v22a1 1 0 11-2 0V13zM28 13a1 1 0 112 0v22a1 1 0 11-2 0V13z" fill="#989AA9"/></svg><svg fill="none" viewBox="0 0 20 20" id="plus" xmlns="http://www.w3.org/2000/svg"><path d="M9.635.051c-.32.09-.499.274-.584.602C9.007.822 9 1.385 9 4.923v4.076l-4.158.009C.192 9.019.533 9 .265 9.266c-.183.182-.248.375-.248.734s.065.552.248.734c.268.266-.073.247 4.576.258l4.158.009.009 4.158c.011 4.649-.008 4.308.258 4.576.182.183.375.248.734.248s.552-.065.734-.248c.266-.268.247.073.258-4.576l.009-4.158 4.158-.009c4.649-.011 4.308.008 4.576-.258.183-.182.248-.375.248-.734s-.065-.552-.248-.734c-.268-.266.073-.247-4.576-.258l-4.158-.009-.009-4.158c-.008-3.549-.017-4.177-.059-4.291-.064-.175-.315-.424-.483-.477a1.772 1.772 0 00-.815-.022" fill-rule="evenodd" fill="#000"/></svg><svg fill="none" viewBox="0 0 26 26" id="search" xmlns="http://www.w3.org/2000/svg"><path d="M16.707 17.293l7.778 7.778M20 10.5a9.5 9.5 0 11-19 0 9.5 9.5 0 0119 0z" stroke="#989AA9" stroke-width="2"/></svg></svg>